# xmcd
#
# Track frame offsets:
#	183
#	21453
#	39345
#	59838
#	77810
#	94918
#	110365
#	131705
#	149943
#	185628
#
# Disc length: 2759 seconds
# Revision: 1
# Processed by: cddbd v1.5.2PL0 Copyright (c) Steve Scherf et al.
# Submitted via: dBpowerAMP V12.0
#
DISCID=9b0ac50a
DTITLE=George Jackson - Heart to Heart Collect
DYEAR=1993
DGENRE=Soul
TTITLE0=Struggling Lady
TTITLE1=Heart to Heart Collect
TTITLE2=If It's Love You're Trying to Fight
TTITLE3=I Want That Love Back
TTITLE4=Back in The Streets Again
TTITLE5=Anything to Prove my Love
TTITLE6=Lonely Women
TTITLE7=Put on me What You Put on Him
TTITLE8=Cafe Woman
TTITLE9=Club House Blues
EXTD=
EXTT0=
EXTT1=
EXTT2=
EXTT3=
EXTT4=
EXTT5=
EXTT6=
EXTT7=
EXTT8=
EXTT9=
PLAYORDER=
